<svg width="94" height="16" viewBox="0 0 94 16" fill="none" xmlns="http://www.w3.org/2000/svg">
<g id="Group">
<path id="Vector" d="M0.0801266 5.92378C0.0801266 1.85178 2.36815 0.891846 6.20815 0.891846H11.2162C17.2802 0.891846 18.0721 2.19579 18.0321 6.13179H13.7681V5.7478C13.7681 4.7478 13.0401 4.45981 11.7681 4.45981H7.12017C4.87217 4.45981 4.4481 5.5158 4.4481 7.2438V8.7398C4.4481 10.7558 4.87213 11.5238 6.88813 11.5238H11.4401C13.3601 11.5238 13.9361 11.3319 13.9361 9.60386H18.2001V10.9079C18.2001 13.2519 17.3521 15.0918 13.0721 15.0918H6.20015C2.36015 15.0918 0.0721188 14.1318 0.0721188 10.0598V5.91587L0.0801266 5.92378Z" fill="#961A88"/>
<path id="Vector_2" d="M20.3522 8.88355C20.3522 5.65955 22.5202 5.00357 24.4002 5.00357H29.9123C31.7923 5.00357 33.9602 5.65955 33.9602 8.88355V11.2275C33.9602 14.4515 31.7923 15.1076 29.9123 15.1076H24.4002C22.5202 15.1076 20.3522 14.4515 20.3522 11.2275V8.88355ZM24.0402 10.5156C24.0402 11.9156 24.8642 12.3395 26.5522 12.3395H27.4322C29.8162 12.3395 30.2722 12.0355 30.2722 10.7235V9.37955C30.2722 8.07555 29.8082 7.76353 27.4322 7.76353H26.5522C24.8642 7.76353 24.0402 8.18755 24.0402 9.58755V10.5076V10.5156Z" fill="#961A88"/>
<path id="Vector_3" d="M39.6883 11.9001C39.6883 12.4361 39.8803 12.8041 41.9763 12.8041H43.2803C45.0243 12.8041 45.4723 12.6681 45.4723 12.0761C45.4723 11.4841 45.1843 11.2681 43.8803 11.2681H40.4244C36.9844 11.2521 35.9683 10.5001 35.9683 7.81215C35.9683 5.37215 37.9283 5.01215 40.4643 5.01215H43.0403C47.8643 5.01215 48.7043 5.68412 48.7443 7.98812H45.0563C44.8643 7.41212 44.5204 7.31615 42.3124 7.31615C40.1044 7.31615 39.7763 7.37208 39.7763 8.04408C39.7763 8.46808 40.0643 8.62015 41.9843 8.62015H44.5363C48.9523 8.62015 49.2803 10.1001 49.2803 11.8441C49.2803 14.4361 48.2403 15.1081 44.0403 15.1081H40.5443C37.1443 15.1081 35.8963 14.3241 35.8963 11.9001H39.6963H39.6883Z" fill="#961A88"/>
<path id="Vector_4" d="M51.2643 5.15552H54.7763V7.07554H54.8164C55.0084 5.67554 56.2723 5.00357 58.0803 5.00357H59.4803C61.2243 5.00357 62.4164 5.75556 63.1124 7.29156C63.7284 5.52356 64.5124 5.00357 66.6084 5.00357H67.7443C71.1043 5.00357 72.3124 6.6355 72.3124 9.4355V14.9475H68.6244V9.68355C68.6244 8.33955 68.2803 7.87554 66.1283 7.87554C64.3603 7.87554 63.6323 8.25952 63.6323 9.54752V14.9395H59.9443V9.38756C59.9443 8.17956 59.5043 7.86754 57.2723 7.86754C55.6963 7.86754 54.9523 8.25154 54.9523 9.77154V14.9395H51.2643V5.14752V5.15552Z" fill="#961A88"/>
<path id="Vector_5" d="M78.5679 3.93198H74.8799V1.052H78.5679V3.93198ZM78.5679 14.956H74.8799V5.16401H78.5679V14.956Z" fill="#961A88"/>
<path id="Vector_6" d="M80.8559 9.51558C80.8559 5.81158 82.6959 5.00357 85.3839 5.00357H89.5279C92.2559 5.00357 93.9279 6.00352 93.9279 8.25152V9.1315H90.3599C90.3599 8.1315 89.8399 7.77154 88.2319 7.77154H86.808C85.272 7.77154 84.5439 8.19554 84.5439 9.26754V10.5715C84.5439 11.8355 85.352 12.2196 86.504 12.2196H88.3839C89.4239 12.2196 90.3599 11.9876 90.3599 11.0836V10.8515H93.9279V11.7156C93.9279 14.3476 91.736 15.0916 89.624 15.0916H85.8559C83.4159 15.0916 80.8479 14.6275 80.8479 10.4435V9.49957L80.8559 9.51558Z" fill="#961A88"/>
</g>
</svg>
